<?xml version="1.0" encoding="UTF-8"?>
<svg width="24" height="24" viewBox="0 0 24 24" fill="none" xmlns="http://www.w3.org/2000/svg">
  <path d="M12 2C6.48 2 2 6.48 2 12s4.48 10 10 10 10-4.48 10-10S17.52 2 12 2zm0 18c-4.41 0-8-3.59-8-8s3.59-8 8-8 8 3.59 8 8-3.59 8-8 8z" fill="currentColor"/>
  <circle cx="12" cy="12" r="2" fill="currentColor"/>
  <circle cx="12" cy="5" r="1" fill="currentColor"/>
  <circle cx="12" cy="19" r="1" fill="currentColor"/>
  <circle cx="5" cy="12" r="1" fill="currentColor"/>
  <circle cx="19" cy="12" r="1" fill="currentColor"/>
  <circle cx="7.5" cy="7.5" r="1" fill="currentColor"/>
  <circle cx="16.5" cy="7.5" r="1" fill="currentColor"/>
  <circle cx="7.5" cy="16.5" r="1" fill="currentColor"/>
  <circle cx="16.5" cy="16.5" r="1" fill="currentColor"/>
</svg> 